PathFileType	4	(X/Y/Z)	Run_200 02
DataRate	CameraRate	NumFrames	NumMarkers	Units	OrigDataRate	OrigDataStartFrame	OrigNumFrames
100	100	8	42	mm	100	232	128
Frame#	Time	LASI			RASI			LPSI			RPSI			RTH1			RTH2			RTH3			LTH1			LTH2			LTH3			RTB1			RTB2			RTB3			LTB1			LTB2			LTB3			RCAL			RTOE			RMT5			LCAL			LTOE			LMT5			LACR			RACR			CLAV			C7			RUA1			RUA2			RUA3			RLEL			RMEL			LUA1			LUA2			LUA3			LLEL			LMEL			RFAsuperior			RFAradius			RFAulna			LFAsuperior			LFAradius			LFAulna			
		X1	Y1	Z1	X2	Y2	Z2	X3	Y3	Z3	X4	Y4	Z4	X5	Y5	Z5	X6	Y6	Z6	X7	Y7	Z7	X8	Y8	Z8	X9	Y9	Z9	X10	Y10	Z10	X11	Y11	Z11	X12	Y12	Z12	X13	Y13	Z13	X14	Y14	Z14	X15	Y15	Z15	X16	Y16	Z16	X17	Y17	Z17	X18	Y18	Z18	X19	Y19	Z19	X20	Y20	Z20	X21	Y21	Z21	X22	Y22	Z22	X23	Y23	Z23	X24	Y24	Z24	X25	Y25	Z25	X26	Y26	Z26	X27	Y27	Z27	X28	Y28	Z28	X29	Y29	Z29	X30	Y30	Z30	X31	Y31	Z31	X32	Y32	Z32	X33	Y33	Z33	X34	Y34	Z34	X35	Y35	Z35	X36	Y36	Z36	X37	Y37	Z37	X38	Y38	Z38	X39	Y39	Z39	X40	Y40	Z40	X41	Y41	Z41	X42	Y42	Z42	

229	3.42	976.632681	946.10421	-429.415412	977.816873	975.8568	-188.822967	813.707261	987.658048	-363.709562	800.776738	998.151019	-257.804427	978.312509	737.579076	-128.151019	1058.084893	673.2733040000001	-146.271965	1027.217547	569.221952	-166.400288	946.564208	744.308082	-466.878083	1003.704021	642.344295	-454.137632	946.993354	535.36828	-443.855849	1063.935509	359.317632	-241.588431	1012.951315	290.317675	-197.675693	997.06808	186.194224	-268.024133	882.305489	363.451691	-384.859872	784.6849089999999	375.740171	-443.081864	699.961195	300.315291	-376.928529	865.595632	107.355688	-290.782055	1088.105759	68.52046300000001	-293.362579	1033.274739	50.11347	-194.453472	563.410942	348.866183	-359.942918	591.393641	131.550429	-362.485304	547.11258	171.076446	-456.079556	965.480007	1441.120939	-458.19348	968.0808469999999	1427.15329	-155.217106	1049.86356	1356.886039	-292.593759	920.220625	1467.555186	-303.477212	896.290838	1328.865287	-61.419662	815.913349	1292.807657	-90.304783	830.844425	1225.412635	-26.674388	785.372504	1172.006325	-2.494665	753.157917	1159.321974	-72.278707	902.816669	1335.504863	-546.805024	845.626935	1274.616624	-519.667029	881.41702	1245.993684	-593.969814	855.905512	1168.350229	-629.098172	826.231988	1138.061241	-566.890913	881.980809	1107.646501	-13.846308	983.724281	1056.301115	-93.9472	938.438652	1003.133544	-70.12869999999999	969.142017	1162.117012	-588.360978	1065.302888	1121.400995	-488.327389	1072.433422	1080.081172	-541.618702	
230	3.43	974.642645	944.536053	-429.981045	977.393592	973.908842	-189.8405	812.298461	986.353314	-362.344608	798.345839	996.187194	-257.372619	973.394312	735.013483	-127.915173	1051.862523	668.185151	-145.433359	1019.64709	565.533578	-165.848332	950.498229	742.981086	-466.615458	1013.984656	643.157614	-453.95392	961.870045	534.904683	-443.402183	1051.059664	355.417572	-241.84829	998.7986519999999	287.440908	-197.919857	978.969285	184.296385	-267.989	901.549632	364.099955	-384.327513	803.91317	376.52561	-442.561108	718.59403	301.972859	-376.354448	845.4017710000001	107.576576	-290.603092	1067.974221	68.493388	-293.174217	1012.820893	50.385565	-193.893926	580.722976	350.599769	-359.06359	610.516359	133.499166	-365.321363	568.303798	174.701173	-459.314146	965.068565	1438.798592	-458.890422	968.647964	1424.29259	-155.379916	1049.351763	1354.08796	-293.277523	918.970902	1465.371175	-303.827059	899.5872000000001	1323.398485	-62.470095	819.876929	1284.017937	-86.315344	840.440806	1217.681607	-23.538431	797.883881	1163.050637	2.317901	762.93322	1148.854985	-65.560318	899.020913	1333.944771	-546.394037	841.479693	1274.619364	-516.5864759999999	874.405344	1244.783085	-591.736138	847.281514	1167.454717	-625.948383	818.959221	1137.668141	-563.807375	895.926137	1101.53157	-12.553375	996.057556	1050.649397	-94.429918	951.803341	996.829963	-68.958467	961.184693	1158.774032	-587.131083	1059.641578	1114.386365	-490.723655	1061.314454	1073.823465	-544.00303	
231	3.44	972.583897	944.2753750000001	-430.574508	976.12465	972.29723	-190.707678	810.825983	986.138963	-360.325195	798.027813	994.7723130000001	-257.577887	968.148343	733.436227	-127.619546	1045.817866	665.23351	-145.029412	1012.144678	563.265969	-164.767897	954.3398560000001	742.953176	-466.241845	1022.987763	645.529178	-454.213792	976.19526	535.943023	-442.694387	1037.33579	352.619185	-241.757804	984.0744099999999	285.450957	-197.650618	960.882382	182.923872	-266.537486	921.179753	366.015459	-383.583033	823.517571	377.30047	-442.18271	737.996155	303.251123	-376.099867	825.269303	107.966695	-290.19208	1047.910734	68.338266	-292.725118	992.507314	50.400294	-193.283153	598.457402	350.669895	-358.586764	631.7000880000001	134.016523	-367.560511	591.308809	176.227749	-461.858605	964.192628	1437.678476	-459.450496	969.619159	1422.198048	-155.41023	1048.78135	1352.467695	-293.976433	918.108428	1464.317246	-303.221641	903.128317	1319.504781	-63.354968	824.788774	1276.261956	-82.77390200000001	850.5040289999999	1211.392971	-20.769411	810.887826	1155.705902	6.751054	773.375222	1139.941611	-59.128963	894.9640879999999	1333.348212	-545.676505	836.730983	1275.576526	-514.090795	867.738282	1244.380864	-589.447843	838.858506	1167.498279	-622.438048	812.337616	1138.27733	-560.350521	910.13278	1097.044861	-11.521306	1008.819851	1046.75887	-95.88132	966.335044	992.5454549999999	-68.273642	953.090907	1157.058674	-585.658447	1054.062813	1108.676533	-492.268793	1050.063705	1069.465473	-545.8276069999999	
232	3.45	970.6705920000001	945.008754	-430.998183	974.016677	971.414145	-191.108913	809.378167	986.8810549999999	-358.34557	799.6547849999999	994.728387	-257.91108	962.99675	732.791363	-127.265441	1039.829729	663.689069	-144.886962	1003.981462	562.032202	-163.531305	957.875729	744.165662	-466.021156	1030.729312	649.4342810000001	-454.793845	989.655529	538.6678910000001	-441.769986	1022.919566	350.351682	-241.177885	968.619785	283.944767	-197.038575	942.878343	182.030116	-264.991873	940.53671	369.279012	-382.161939	843.06657	378.574939	-441.694557	758.057285	304.091993	-376.13211	805.2659630000001	108.498469	-289.706366	1027.930004	68.18266	-292.228617	972.380737	50.265897	-192.730232	616.38896	348.969165	-358.526533	654.86233	133.061418	-369.233058	616.144977	175.641997	-463.69078	962.863409	1437.764434	-459.873371	970.804485	1421.041673	-155.590854	1048.143689	1352.046896	-294.827706	917.8628179999999	1464.366954	-302.472099	907.5852619999999	1317.062304	-63.616087	830.90906	1270.117707	-79.863367	860.843786	1206.853064	-18.39009	823.985194	1150.203944	10.771535	784.520804	1132.990719	-53.462125	890.847443	1333.870143	-544.721816	831.666231	1277.479037	-511.981442	861.593435	1244.818148	-587.093583	830.639084	1168.432042	-618.680934	805.573719	1139.942134	-556.166457	924.0814370000001	1094.080873	-10.601469	1021.470526	1045.140618	-98.26617400000001	981.735365	990.644165	-68.07911900000001	945.133415	1156.085573	-584.54225	1048.116238	1103.556122	-493.139007	1039.051794	1066.458105	-547.751986	
233	3.46	969.028394	946.444489	-431.177857	971.557646	971.301015	-191.046547	807.905576	988.317419	-357.089673	801.436366	996.072019	-258.16105	957.944838	732.79705	-126.952591	1033.377326	662.502476	-144.881689	994.515257	561.159845	-162.543167	960.900975	746.3888449999999	-466.06437	1037.608722	654.564433	-455.444571	1002.103118	542.950729	-440.746557	1007.728081	348.201259	-240.459943	952.34639	282.596368	-196.421972	924.742304	181.654122	-264.567969	959.063547	373.793392	-379.835952	862.200231	380.564544	-440.96181	778.600638	304.355862	-376.112278	785.348293	109.084585	-289.27609	1007.954743	68.177965	-291.836636	952.313535	50.116437	-192.223869	634.3593080000001	345.437665	-358.752267	680.069553	130.82697	-370.184527	642.631038	173.022843	-464.781562	961.266515	1438.882981	-460.223945	972.005734	1420.913387	-156.097877	1047.571701	1352.585167	-295.885625	917.943535	1465.193004	-302.242312	913.388752	1315.816811	-63.198031	838.085646	1265.970104	-77.608259	871.287838	1204.181901	-16.387572	836.959712	1146.568731	14.338413	796.137866	1128.072335	-48.691915	886.81901	1335.516946	-543.719084	826.835616	1280.505387	-509.903242	855.850539	1246.255428	-584.716003	822.468963	1170.336222	-614.879591	798.164673	1142.74727	-551.3723639999999	937.695052	1092.783067	-9.908975	1033.736234	1046.143505	-101.291282	997.537862	991.224771	-68.573137	937.417417	1155.16768	-584.076949	1041.452499	1099.069682	-494.188391	1028.686931	1064.464437	-550.525956	
234	3.47	967.746742	948.438528	-431.088154	969.340965	971.801969	-190.646796	806.364378	990.216528	-356.75926	801.765698	998.17567	-258.470419	952.606368	733.109903	-126.820524	1025.857072	661.037009	-144.881049	983.552282	560.197076	-161.971473	963.5160069999999	749.4634139999999	-466.344692	1044.02652	660.661119	-456.003755	1013.581438	548.497073	-439.798088	991.674052	346.129413	-239.92727	935.238392	281.369317	-195.991172	906.204775	181.634924	-265.073121	976.721948	379.258831	-377.16144	880.721207	383.122663	-440.103386	799.336185	303.999605	-375.71929	765.417524	109.61222	-288.903841	987.9055080000001	68.282826	-291.470163	932.172229	50.000073	-191.694568	652.280498	340.052465	-359.047248	707.6258769999999	127.683065	-370.091299	670.487246	168.531762	-465.144585	959.623837	1440.774169	-460.585365	973.125796	1421.838755	-156.895853	1047.203259	1353.852495	-297.092253	917.920441	1466.521021	-302.521222	920.361459	1315.624716	-62.466202	845.7783020000001	1263.895815	-75.704213	881.646449	1203.281303	-14.737834	849.723178	1144.689952	17.37388	807.803759	1124.96386	-44.613426	882.899364	1338.157265	-542.8365240000001	822.677822	1284.705699	-507.555143	850.154602	1248.863281	-582.403373	814.172148	1173.398814	-611.261487	790.226034	1146.812375	-546.471066	951.13202	1093.513582	-9.721384	1045.694478	1049.865452	-104.573784	1013.237121	994.225742	-70.02788099999999	929.738669	1154.60043	-583.9468900000001	1033.916747	1095.981647	-496.341452	1019.07847	1063.493264	-554.433348	
235	3.48	966.93477	950.933946	-430.690995	967.672173	972.792513	-190.004623	804.895051	992.55769	-357.103687	800.780767	1000.499089	-259.016067	946.4233819999999	733.497927	-126.97288	1016.948615	659.230384	-144.780783	971.271125	559.228131	-161.748846	966.085412	753.37594	-466.82985	1050.187275	667.648311	-456.467457	1024.243187	555.055801	-439.098829	974.834125	344.384681	-239.594371	917.387027	280.48725	-195.728485	887.178541	181.741873	-265.52594	993.901035	385.294577	-375.150519	898.576084	385.888118	-439.307533	820.03745	303.111683	-374.90385	745.409283	110.048898	-288.548447	967.772364	68.332836	-290.974216	911.937138	49.922059	-191.136492	670.247706	332.813522	-359.291924	737.7978890000001	123.993283	-368.78395	699.489411	162.402152	-464.841868	958.1111540000001	1443.193089	-461.020426	974.212972	1423.810834	-157.856315	1047.059295	1355.765607	-298.363568	917.6314609999999	1468.304864	-302.915896	927.81286	1316.578044	-61.924192	853.394816	1263.775071	-73.598316	891.720506	1203.933548	-13.436813	862.191274	1144.427908	19.799263	819.160322	1123.389932	-41.019395	879.02292	1341.641096	-542.134879	819.257325	1289.873384	-504.835401	844.1681610000001	1252.712396	-580.2472739999999	805.689789	1177.776386	-607.993523	782.129805	1152.212153	-541.938094	964.417536	1096.515473	-10.218944	1057.519975	1056.141854	-107.853475	1028.440039	999.5133949999999	-72.548289	921.764135	1155.433818	-583.524219	1025.422583	1094.856402	-499.69441	1009.788896	1063.661399	-558.982916	
236	3.49	966.627068	953.859661	-429.988958	966.50863	974.248246	-189.1823	803.767114	995.49277	-357.77675	799.737193	1003.020408	-259.742181	939.057092	733.953873	-127.457906	1006.802965	657.391284	-144.650552	958.023476	558.684271	-161.795244	968.9676940000001	758.171217	-467.55114	1056.142477	675.527887	-456.894164	1034.199644	562.469308	-438.749153	957.431166	343.273151	-239.355986	898.984953	280.228496	-195.564744	867.8281930000001	181.998764	-265.495012	1010.877375	391.653296	-374.288271	915.772343	388.47564	-438.635017	840.715901	301.775341	-373.864375	725.359072	110.529039	-288.237214	947.614468	68.259394	-290.370899	891.676674	49.871366	-190.678641	688.538953	323.75464	-359.516015	770.323712	119.994775	-366.549776	729.52885	154.910712	-463.925382	956.809951	1445.967075	-461.570634	975.408934	1426.794298	-158.92601	1047.067566	1358.334637	-299.681275	917.262686	1470.637673	-303.230172	934.976847	1318.88946	-61.867502	860.612681	1265.415392	-70.87724	901.346118	1205.922578	-12.516025	874.2109809999999	1145.659399	21.586794	830.062891	1123.208533	-37.951407	875.101261	1345.86458	-541.5750399999999	816.26508	1295.660993	-501.858916	837.775973	1257.735686	-578.305487	797.087054	1183.468758	-605.1362360000001	774.102223	1158.843226	-538.01469	977.306134	1101.626705	-11.310557	1069.144568	1064.607485	-111.056116	1042.921824	1006.868555	-75.92497899999999	913.346121	1158.408654	-582.557502	1015.872693	1095.388313	-503.217157	1000.101188	1064.904959	-563.131037	
